<svg id="visual" viewBox="0 0 960 540" width="960" height="540" xmlns="http://www.w3.org/2000/svg" xmlns:xlink="http://www.w3.org/1999/xlink" version="1.1"><rect x="0" y="0" width="960" height="540" fill="#FFD400"></rect><path d="M0 67L26.7 74C53.3 81 106.7 95 160 102.5C213.3 110 266.7 111 320 105.7C373.3 100.3 426.7 88.7 480 77.3C533.3 66 586.7 55 640 60.7C693.3 66.3 746.7 88.7 800 98.3C853.3 108 906.7 105 933.3 103.5L960 102L960 0L933.3 0C906.7 0 853.3 0 800 0C746.7 0 693.3 0 640 0C586.7 0 533.3 0 480 0C426.7 0 373.3 0 320 0C266.7 0 213.3 0 160 0C106.7 0 53.3 0 26.7 0L0 0Z" fill="#FF3366" stroke-linecap="round" stroke-linejoin="miter"></path></svg>